HIERARCHY
ROOT hip
{
  OFFSET 0 0 0
  CHANNELS 6 Xposition Yposition Zposition Zrotation Yrotation Xrotation
  JOINT abdomen
  {
    OFFSET 0 20.6881 -0.73152
    CHANNELS 3 Zrotation Xrotation Yrotation
    JOINT chest
    {
      OFFSET 0 11.7043 -0.48768
      CHANNELS 3 Zrotation Xrotation Yrotation
      JOINT neck
      {
        OFFSET 0 22.1894 -2.19456
        CHANNELS 3 Zrotation Xrotation Yrotation
        JOINT head
        {
          OFFSET -0.24384 7.07133 1.2192
          CHANNELS 3 Zrotation Xrotation Yrotation
          JOINT leftEye
          {
            OFFSET 4.14528 8.04674 8.04672
            CHANNELS 3 Zrotation Xrotation Yrotation
            End Site
            {
              OFFSET 1 0 0
            }
          }
          JOINT rightEye
          {
            OFFSET -3.6576 8.04674 8.04672
            CHANNELS 3 Zrotation Xrotation Yrotation
            End Site
            {
              OFFSET 1 0 0
            }
          }
        }
      }
      JOINT rCollar
      {
        OFFSET -2.68224 19.2634 -4.8768
        CHANNELS 3 Zrotation Xrotation Yrotation
        JOINT rShldr
        {
          OFFSET -8.77824 -1.95073 1.46304
          CHANNELS 3 Zrotation Xrotation Yrotation
          JOINT rForeArm
          {
            OFFSET -28.1742 -1.7115 0.48768
            CHANNELS 3 Zrotation Xrotation Yrotation
            JOINT rHand
            {
              OFFSET -22.5879 0.773209 7.07136
              CHANNELS 3 Zrotation Xrotation Yrotation
              JOINT rThumb1
              {
                OFFSET -1.2192 -0.487915 3.41376
                CHANNELS 3 Zrotation Xrotation Yrotation
                JOINT rThumb2
                {
                  OFFSET -3.37035 -0.52449 3.41376
                  CHANNELS 3 Zrotation Xrotation Yrotation
                  End Site
                  {
                    OFFSET -1.78271 -1.18214 1.43049
                  }
                }
              }
              JOINT rIndex1
              {
                OFFSET -7.75947 0.938293 5.60832
                CHANNELS 3 Zrotation Xrotation Yrotation
                JOINT rIndex2
                {
                  OFFSET -2.54057 -0.884171 1.56538
                  CHANNELS 3 Zrotation Xrotation Yrotation
                  End Site
                  {
                    OFFSET -1.62519 -0.234802 1.16502
                  }
                }
              }
              JOINT rMid1
              {
                OFFSET -8.24714 1.18213 3.41376
                CHANNELS 3 Zrotation Xrotation Yrotation
                JOINT rMid2
                {
                  OFFSET -3.10165 -0.590103 1.0647
                  CHANNELS 3 Zrotation Xrotation Yrotation
                  End Site
                  {
                    OFFSET -2.48547 -0.328903 0.83742
                  }
                }
              }
              JOINT rRing1
              {
                OFFSET -8.82822 0.546677 1.51678
                CHANNELS 3 Zrotation Xrotation Yrotation
                JOINT rRing2
                {
                  OFFSET -2.60934 -0.819778 -0.0198488
                  CHANNELS 3 Zrotation Xrotation Yrotation
                  End Site
                  {
                    OFFSET -2.33842 -0.294052 0.168128
                  }
                }
              }
              JOINT rPinky1
              {
                OFFSET -8.27202 -0.0477905 -0.4584
                CHANNELS 3 Zrotation Xrotation Yrotation
                JOINT rPinky2
                {
                  OFFSET -1.82734 -0.647385 -0.700984
                  CHANNELS 3 Zrotation Xrotation Yrotation
                  End Site
                  {
                    OFFSET -1.69225 -0.51767 -0.607171
                  }
                }
              }
            }
          }
        }
      }
      JOINT lCollar
      {
        OFFSET 2.68224 19.2634 -4.8768
        CHANNELS 3 Zrotation Xrotation Yrotation
        JOINT lShldr
        {
          OFFSET 8.77824 -1.95073 1.46304
          CHANNELS 3 Zrotation Xrotation Yrotation
          JOINT lForeArm
          {
            OFFSET 28.1742 -1.7115 0.48768
            CHANNELS 3 Zrotation Xrotation Yrotation
            JOINT lHand
            {
              OFFSET 22.5879 0.773209 7.07136
              CHANNELS 3 Zrotation Xrotation Yrotation
              JOINT lThumb1
              {
                OFFSET 1.2192 -0.487915 3.41376
                CHANNELS 3 Zrotation Xrotation Yrotation
                JOINT lThumb2
                {
                  OFFSET 3.37035 -0.52449 3.41376
                  CHANNELS 3 Zrotation Xrotation Yrotation
                  End Site
                  {
                    OFFSET 1.78271 -1.18214 1.43049
                  }
                }
              }
              JOINT lIndex1
              {
                OFFSET 7.75947 0.938293 5.60832
                CHANNELS 3 Zrotation Xrotation Yrotation
                JOINT lIndex2
                {
                  OFFSET 2.54057 -0.884171 1.56538
                  CHANNELS 3 Zrotation Xrotation Yrotation
                  End Site
                  {
                    OFFSET 1.62519 -0.234802 1.16502
                  }
                }
              }
              JOINT lMid1
              {
                OFFSET 8.24714 1.18213 3.41376
                CHANNELS 3 Zrotation Xrotation Yrotation
                JOINT lMid2
                {
                  OFFSET 3.10165 -0.590103 1.0647
                  CHANNELS 3 Zrotation Xrotation Yrotation
                  End Site
                  {
                    OFFSET 2.48547 -0.328903 0.83742
                  }
                }
              }
              JOINT lRing1
              {
                OFFSET 8.82822 0.546677 1.51678
                CHANNELS 3 Zrotation Xrotation Yrotation
                JOINT lRing2
                {
                  OFFSET 2.60934 -0.819778 -0.0198488
                  CHANNELS 3 Zrotation Xrotation Yrotation
                  End Site
                  {
                    OFFSET 2.33842 -0.294052 0.168128
                  }
                }
              }
              JOINT lPinky1
              {
                OFFSET 8.27202 -0.0477905 -0.4584
                CHANNELS 3 Zrotation Xrotation Yrotation
                JOINT lPinky2
                {
                  OFFSET 1.82734 -0.647385 -0.700984
                  CHANNELS 3 Zrotation Xrotation Yrotation
                  End Site
                  {
                    OFFSET 1.69225 -0.51767 -0.607171
                  }
                }
              }
            }
          }
        }
      }
    }
  }
  JOINT rButtock
  {
    OFFSET -8.77824 4.35084 1.2192
    CHANNELS 3 Zrotation Xrotation Yrotation
    JOINT rThigh
    {
      OFFSET 0 -1.70687 -2.19456
      CHANNELS 3 Zrotation Xrotation Yrotation
      JOINT rShin
      {
        OFFSET 0 -36.8199 0.73152
        CHANNELS 3 Zrotation Xrotation Yrotation
        JOINT rFoot
        {
          OFFSET 0.73152 -45.1104 -5.12064
          CHANNELS 3 Zrotation Xrotation Yrotation
          End Site
          {
            OFFSET -1.1221 -3.69964 12.103
          }
        }
      }
    }
  }
  JOINT lButtock
  {
    OFFSET 8.77824 4.35084 1.2192
    CHANNELS 3 Zrotation Xrotation Yrotation
    JOINT lThigh
    {
      OFFSET 0 -1.70687 -2.19456
      CHANNELS 3 Zrotation Xrotation Yrotation
      JOINT lShin
      {
        OFFSET 0 -36.8199 0.73152
        CHANNELS 3 Zrotation Xrotation Yrotation
        JOINT lFoot
        {
          OFFSET -0.73152 -45.1104 -5.12064
          CHANNELS 3 Zrotation Xrotation Yrotation
          End Site
          {
            OFFSET 1.1221 -3.69964 12.103
          }
        }
      }
    }
  }
}
MOTION
Frames:	4
Frame Time:	0.00833333
-5.2622 83.3637 212.473 -178.94 -15.988 175.396 2.50385 16.3148 -3.06322 1.31937 -3.09895 -0.97663 3.70749 0.136566 1.2613 -10.8997 -14.4049 -0.0981507 -0.0 0.0 0.0 -0.0 0.0 0.0 5.77602e-14 -1.01776e-13 -3.51253e-13 50.4106 27.693 41.4218 -28.4333 -35.6881 76.4881 -0.0822282 8.15312 1.15372 5.50716e-10 2.422e-09 2.5621e-10 9.54713e-10 4.19187e-09 4.40776e-10 5.50727e-10 2.42201e-09 2.56194e-10 7.73091 5.47488 0.417314 5.50725e-10 2.42201e-09 2.56206e-10 2.90554 0.965183 0.102902 5.50723e-10 2.422e-09 2.56207e-10 10.2786 0.731801 0.0259123 5.50716e-10 2.422e-09 2.56213e-10 2.22167 -0.733487 -0.20892 5.7489e-14 -1.01781e-13 -3.5165e-13 -54.3618 33.3685 -40.3497 28.3403 -33.3536 -72.6448 0.443935 -18.5984 2.71069 5.74478e-10 -7.07634e-09 1.39713e-09 9.72686e-10 -1.21597e-08 2.42716e-09 5.74473e-10 -7.07635e-09 1.39714e-09 -7.73091 5.47488 -0.417314 5.74478e-10 -7.07635e-09 1.39714e-09 -2.90554 0.965183 -0.102902 5.74464e-10 -7.07635e-09 1.39714e-09 -10.2786 0.731801 -0.0259123 5.74489e-10 -7.07636e-09 1.39714e-09 -2.22167 -0.733487 0.20892 -2.03217e-16 0.0 -3.88251e-19 -3.11046 -11.4902 -1.36713 -0.248257 36.1385 0.683289 -3.70438 -13.3776 -9.46829 2.03217e-16 0.0 3.88251e-19 8.41002 -20.5141 -5.76466 0.411598 43.5009 -0.769253 1.41754 -8.95985 3.41572
-5.56738 83.359 212.649 -179.196 -16.1879 175.447 1.96378 16.407 -3.21693 1.50184 -2.93836 -1.04506 3.65304 0.114543 1.2916 -11.0005 -14.4581 -0.0482237 -0.0 0.0 0.0 -0.0 0.0 0.0 5.8131e-14 -7.19214e-14 -3.82733e-13 47.687 26.0743 45.5112 -28.4239 -35.8268 76.7693 -0.116923 9.12474 1.29463 6.6129e-10 2.63316e-09 -7.97598e-11 1.14531e-09 4.55664e-09 -1.40358e-10 6.613e-10 2.63316e-09 -7.97746e-11 7.73091 5.47488 0.417314 6.61298e-10 2.63317e-09 -7.97608e-11 2.90554 0.965183 0.102902 6.61297e-10 2.63316e-09 -7.97611e-11 10.2786 0.731801 0.0259123 6.61288e-10 2.63316e-09 -7.9755e-11 2.22167 -0.733487 -0.20892 5.78808e-14 -7.19253e-14 -3.83157e-13 -52.052 30.5664 -44.9507 28.3282 -33.3046 -72.6309 0.411903 -17.9968 2.61601 7.33091e-10 -6.34728e-09 1.32016e-09 1.24629e-09 -1.09013e-08 2.29775e-09 7.33086e-10 -6.34728e-09 1.32018e-09 -7.73091 5.47488 -0.417314 7.33092e-10 -6.34729e-09 1.32017e-09 -2.90554 0.965183 -0.102902 7.33078e-10 -6.34728e-09 1.32017e-09 -10.2786 0.731801 -0.0259123 7.33102e-10 -6.34729e-09 1.32017e-09 -2.22167 -0.733487 0.20892 -2.03217e-16 0.0 -3.88251e-19 -3.69955 -11.726 -1.40051 -0.254112 36.5275 0.695597 -3.80938 -13.3705 -9.75595 2.03217e-16 0.0 3.88251e-19 7.82077 -20.8323 -5.78851 0.411661 43.4737 -0.76414 1.37069 -8.26242 3.38628
-5.95036 83.3402 212.859 -179.579 -16.4954 175.561 1.29271 16.4897 -3.40822 1.71615 -2.79377 -1.12818 3.59462 0.0477314 1.31926 -11.1094 -14.4121 0.00129946 -0.0 0.0 0.0 -0.0 0.0 0.0 6.27915e-14 -2.71332e-14 -4.06465e-13 44.8955 23.8646 49.9113 -28.4157 -35.8656 76.8789 -0.120274 9.27048 1.31573 8.04224e-10 2.88337e-09 -5.11611e-10 1.39104e-09 4.9866e-09 -8.86912e-10 8.04232e-10 2.88337e-09 -5.11623e-10 7.73091 5.47488 0.417314 8.04229e-10 2.88337e-09 -5.11609e-10 2.90554 0.965183 0.102902 8.04232e-10 2.88337e-09 -5.11611e-10 10.2786 0.731801 0.0259123 8.04218e-10 2.88337e-09 -5.11604e-10 2.22167 -0.733487 -0.20892 6.2596e-14 -2.71356e-14 -4.06894e-13 -50.0793 27.3349 -49.744 28.2994 -33.0905 -72.3742 0.361228 -16.9404 2.45219 9.48359e-10 -6.19433e-09 1.12673e-09 1.61906e-09 -1.06569e-08 1.96792e-09 9.48354e-10 -6.19433e-09 1.12674e-09 -7.73091 5.47488 -0.417314 9.48359e-10 -6.19434e-09 1.12673e-09 -2.90554 0.965183 -0.102902 9.48349e-10 -6.19433e-09 1.12673e-09 -10.2786 0.731801 -0.0259123 9.48367e-10 -6.19434e-09 1.12673e-09 -2.22167 -0.733487 0.20892 -2.03217e-16 0.0 -3.88251e-19 -4.47823 -12.0618 -1.49739 -0.262117 37.0319 0.710847 -3.90185 -13.4498 -9.96205 2.03217e-16 0.0 3.88251e-19 7.10161 -21.1419 -5.68263 0.411974 43.4432 -0.756902 1.21199 -7.57988 2.89649
-6.47999 83.3094 213.104 -180.359 -16.895 175.824 0.633808 16.5814 -3.59674 1.9139 -2.70172 -1.20911 3.53509 -0.0140774 1.36049 -11.1978 -14.2846 0.0877768 -0.0 0.0 0.0 -0.0 0.0 0.0 7.17775e-14 1.84999e-14 -4.33191e-13 42.5948 21.5481 54.1347 -28.4176 -35.7675 76.7086 -0.104633 8.90544 1.26247 9.62192e-10 3.17404e-09 -9.22602e-10 1.66256e-09 5.48578e-09 -1.59701e-09 9.62199e-10 3.17403e-09 -9.22611e-10 7.73091 5.47488 0.417314 9.62195e-10 3.17403e-09 -9.22597e-10 2.90554 0.965183 0.102902 9.62202e-10 3.17403e-09 -9.226e-10 10.2786 0.731801 0.0259123 9.62183e-10 3.17403e-09 -9.22592e-10 2.22167 -0.733487 -0.20892 7.16457e-14 1.84989e-14 -4.33609e-13 -48.6045 23.9917 -54.2489 28.2641 -32.7165 -71.7723 0.314045 -15.8121 2.28022 1.19545e-09 -6.31989e-09 8.94585e-10 2.04742e-09 -1.08993e-08 1.57124e-09 1.19545e-09 -6.31989e-09 8.94601e-10 -7.73091 5.47488 -0.417314 1.19545e-09 -6.31989e-09 8.94582e-10 -2.90554 0.965183 -0.102902 1.19545e-09 -6.31989e-09 8.94587e-10 -10.2786 0.731801 -0.0259123 1.19546e-09 -6.31989e-09 8.94583e-10 -2.22167 -0.733487 0.20892 -2.03217e-16 0.0 -3.88251e-19 -5.28378 -12.4843 -1.61968 -0.272548 37.6364 0.727337 -3.98089 -13.4671 -10.1487 2.03217e-16 0.0 3.88251e-19 6.40555 -21.4119 -5.40343 0.41224 43.415 -0.749929 1.0353 -7.00877 2.2667
